<mxfile host="app.diagrams.net" modified="2023-10-13T07:57:55.615Z" agent="Mozilla/5.0 (Windows NT 10.0; Win64; x64) AppleWebKit/537.36 (KHTML, like Gecko) Chrome/116.0.5845.967 YaBrowser/23.9.1.967 Yowser/2.5 Safari/537.36" etag="X0uMvrIMyPHZ8WoaR1dO" version="22.0.4" type="github">
  <diagram id="C5RBs43oDa-KdzZeNtuy" name="Page-1">
    <mxGraphModel dx="1209" dy="1326" grid="0" gridSize="10" guides="1" tooltips="1" connect="1" arrows="1" fold="1" page="1" pageScale="1" pageWidth="827" pageHeight="1169" math="0" shadow="0">
      <root>
        <mxCell id="WIyWlLk6GJQsqaUBKTNV-0" />
        <mxCell id="WIyWlLk6GJQsqaUBKTNV-1" parent="WIyWlLk6GJQsqaUBKTNV-0" />
        <mxCell id="WIyWlLk6GJQsqaUBKTNV-2" value="" style="rounded=0;html=1;jettySize=auto;orthogonalLoop=1;fontSize=11;endArrow=block;endFill=0;endSize=8;strokeWidth=1;shadow=0;labelBackgroundColor=none;edgeStyle=orthogonalEdgeStyle;" parent="WIyWlLk6GJQsqaUBKTNV-1" target="WIyWlLk6GJQsqaUBKTNV-6" edge="1">
          <mxGeometry relative="1" as="geometry">
            <mxPoint x="220" y="120" as="sourcePoint" />
          </mxGeometry>
        </mxCell>
        <mxCell id="WIyWlLk6GJQsqaUBKTNV-4" value="Да" style="rounded=0;html=1;jettySize=auto;orthogonalLoop=1;fontSize=11;endArrow=block;endFill=0;endSize=8;strokeWidth=1;shadow=0;labelBackgroundColor=none;edgeStyle=orthogonalEdgeStyle;" parent="WIyWlLk6GJQsqaUBKTNV-1" source="WIyWlLk6GJQsqaUBKTNV-6" target="WIyWlLk6GJQsqaUBKTNV-10" edge="1">
          <mxGeometry y="20" relative="1" as="geometry">
            <mxPoint as="offset" />
          </mxGeometry>
        </mxCell>
        <mxCell id="WIyWlLk6GJQsqaUBKTNV-6" value="Есть &lt;br&gt;собранные&lt;br&gt;&amp;nbsp;ряды?" style="rhombus;whiteSpace=wrap;html=1;shadow=0;fontFamily=Helvetica;fontSize=12;align=center;strokeWidth=1;spacing=6;spacingTop=-4;" parent="WIyWlLk6GJQsqaUBKTNV-1" vertex="1">
          <mxGeometry x="140" y="170" width="160" height="80" as="geometry" />
        </mxCell>
        <mxCell id="WIyWlLk6GJQsqaUBKTNV-8" value="" style="rounded=0;html=1;jettySize=auto;orthogonalLoop=1;fontSize=11;endArrow=none;endFill=0;endSize=8;strokeWidth=1;shadow=0;labelBackgroundColor=none;edgeStyle=orthogonalEdgeStyle;" parent="WIyWlLk6GJQsqaUBKTNV-1" source="WIyWlLk6GJQsqaUBKTNV-10" target="WIyWlLk6GJQsqaUBKTNV-11" edge="1">
          <mxGeometry x="0.3333" y="20" relative="1" as="geometry">
            <mxPoint as="offset" />
          </mxGeometry>
        </mxCell>
        <mxCell id="WIyWlLk6GJQsqaUBKTNV-9" value="Нет" style="edgeStyle=orthogonalEdgeStyle;rounded=0;html=1;jettySize=auto;orthogonalLoop=1;fontSize=11;endArrow=block;endFill=0;endSize=8;strokeWidth=1;shadow=0;labelBackgroundColor=none;exitX=1;exitY=0.5;exitDx=0;exitDy=0;" parent="WIyWlLk6GJQsqaUBKTNV-1" source="WIyWlLk6GJQsqaUBKTNV-6" edge="1">
          <mxGeometry x="-0.8718" y="10" relative="1" as="geometry">
            <mxPoint as="offset" />
            <mxPoint x="220" y="760" as="targetPoint" />
            <Array as="points">
              <mxPoint x="430" y="210" />
              <mxPoint x="430" y="760" />
            </Array>
          </mxGeometry>
        </mxCell>
        <mxCell id="WIyWlLk6GJQsqaUBKTNV-10" value="Удаление заполненного ряда" style="whiteSpace=wrap;html=1;shadow=0;fontFamily=Helvetica;fontSize=12;align=center;strokeWidth=1;spacing=6;spacingTop=-4;shape=process;backgroundOutline=1;" parent="WIyWlLk6GJQsqaUBKTNV-1" vertex="1">
          <mxGeometry x="140" y="290" width="160" height="60" as="geometry" />
        </mxCell>
        <mxCell id="WIyWlLk6GJQsqaUBKTNV-11" value="Увеличение счетчика&lt;br&gt;&amp;nbsp;линий" style="rounded=1;whiteSpace=wrap;html=1;fontSize=12;glass=0;strokeWidth=1;shadow=0;" parent="WIyWlLk6GJQsqaUBKTNV-1" vertex="1">
          <mxGeometry x="140" y="390" width="160" height="40" as="geometry" />
        </mxCell>
        <mxCell id="WcjE2hw71G-c8iAP6cZd-0" value="Начало" style="ellipse;whiteSpace=wrap;html=1;" vertex="1" parent="WIyWlLk6GJQsqaUBKTNV-1">
          <mxGeometry x="140" y="80" width="160" height="40" as="geometry" />
        </mxCell>
        <mxCell id="WcjE2hw71G-c8iAP6cZd-1" value="Число линий &lt;br&gt;кратно 5?" style="rhombus;whiteSpace=wrap;html=1;" vertex="1" parent="WIyWlLk6GJQsqaUBKTNV-1">
          <mxGeometry x="144" y="480" width="150" height="80" as="geometry" />
        </mxCell>
        <mxCell id="WcjE2hw71G-c8iAP6cZd-3" value="" style="rounded=0;html=1;jettySize=auto;orthogonalLoop=1;fontSize=11;endArrow=none;endFill=0;endSize=8;strokeWidth=1;shadow=0;labelBackgroundColor=none;edgeStyle=orthogonalEdgeStyle;exitX=0.476;exitY=1.004;exitDx=0;exitDy=0;entryX=0.5;entryY=0;entryDx=0;entryDy=0;exitPerimeter=0;" edge="1" parent="WIyWlLk6GJQsqaUBKTNV-1" source="WIyWlLk6GJQsqaUBKTNV-11" target="WcjE2hw71G-c8iAP6cZd-1">
          <mxGeometry x="0.3333" y="20" relative="1" as="geometry">
            <mxPoint as="offset" />
            <mxPoint x="214" y="450" as="sourcePoint" />
            <mxPoint x="224" y="420" as="targetPoint" />
            <Array as="points">
              <mxPoint x="219" y="430" />
            </Array>
          </mxGeometry>
        </mxCell>
        <mxCell id="WcjE2hw71G-c8iAP6cZd-20" style="edgeStyle=orthogonalEdgeStyle;rounded=0;orthogonalLoop=1;jettySize=auto;html=1;strokeColor=default;endArrow=block;endFill=0;" edge="1" parent="WIyWlLk6GJQsqaUBKTNV-1">
          <mxGeometry relative="1" as="geometry">
            <mxPoint x="299" y="819.7" as="sourcePoint" />
            <mxPoint x="409" y="819.7" as="targetPoint" />
            <Array as="points">
              <mxPoint x="319" y="819.7" />
              <mxPoint x="319" y="819.7" />
            </Array>
          </mxGeometry>
        </mxCell>
        <mxCell id="WcjE2hw71G-c8iAP6cZd-24" value="Да" style="edgeLabel;html=1;align=center;verticalAlign=middle;resizable=0;points=[];" vertex="1" connectable="0" parent="WcjE2hw71G-c8iAP6cZd-20">
          <mxGeometry x="0.0089" y="-4" relative="1" as="geometry">
            <mxPoint y="-14" as="offset" />
          </mxGeometry>
        </mxCell>
        <mxCell id="WcjE2hw71G-c8iAP6cZd-5" value="Увеличение уровня" style="rounded=1;whiteSpace=wrap;html=1;fontSize=12;glass=0;strokeWidth=1;shadow=0;" vertex="1" parent="WIyWlLk6GJQsqaUBKTNV-1">
          <mxGeometry x="139" y="600" width="160" height="40" as="geometry" />
        </mxCell>
        <mxCell id="WcjE2hw71G-c8iAP6cZd-6" value="Да" style="rounded=0;html=1;jettySize=auto;orthogonalLoop=1;fontSize=11;endArrow=block;endFill=0;endSize=8;strokeWidth=1;shadow=0;labelBackgroundColor=none;edgeStyle=orthogonalEdgeStyle;entryX=0.5;entryY=0;entryDx=0;entryDy=0;exitX=0.5;exitY=1;exitDx=0;exitDy=0;" edge="1" parent="WIyWlLk6GJQsqaUBKTNV-1" source="WcjE2hw71G-c8iAP6cZd-1" target="WcjE2hw71G-c8iAP6cZd-5">
          <mxGeometry x="0.3333" y="20" relative="1" as="geometry">
            <mxPoint as="offset" />
            <mxPoint x="225" y="560" as="sourcePoint" />
            <mxPoint x="229" y="490" as="targetPoint" />
            <Array as="points">
              <mxPoint x="219" y="570" />
              <mxPoint x="219" y="570" />
            </Array>
          </mxGeometry>
        </mxCell>
        <mxCell id="WcjE2hw71G-c8iAP6cZd-8" value="Начисление очков за собранную(ые) линии" style="whiteSpace=wrap;html=1;shadow=0;fontFamily=Helvetica;fontSize=12;align=center;strokeWidth=1;spacing=6;spacingTop=-4;shape=process;backgroundOutline=1;" vertex="1" parent="WIyWlLk6GJQsqaUBKTNV-1">
          <mxGeometry x="140" y="680" width="160" height="60" as="geometry" />
        </mxCell>
        <mxCell id="WcjE2hw71G-c8iAP6cZd-10" value="Число очков &amp;gt;=&lt;br&gt;&amp;nbsp;рекорда?" style="rhombus;whiteSpace=wrap;html=1;" vertex="1" parent="WIyWlLk6GJQsqaUBKTNV-1">
          <mxGeometry x="143" y="780" width="155" height="80" as="geometry" />
        </mxCell>
        <mxCell id="WcjE2hw71G-c8iAP6cZd-11" value="Конец" style="ellipse;whiteSpace=wrap;html=1;" vertex="1" parent="WIyWlLk6GJQsqaUBKTNV-1">
          <mxGeometry x="138" y="920" width="160" height="40" as="geometry" />
        </mxCell>
        <mxCell id="WcjE2hw71G-c8iAP6cZd-13" value="" style="html=1;jettySize=auto;orthogonalLoop=1;fontSize=11;endArrow=none;endFill=0;strokeWidth=1;shadow=0;labelBackgroundColor=none;edgeStyle=orthogonalEdgeStyle;entryX=0.5;entryY=0;entryDx=0;entryDy=0;exitX=0.5;exitY=1;exitDx=0;exitDy=0;strokeColor=default;rounded=0;" edge="1" parent="WIyWlLk6GJQsqaUBKTNV-1">
          <mxGeometry x="0.3333" y="20" relative="1" as="geometry">
            <mxPoint as="offset" />
            <mxPoint x="218.9" y="640" as="sourcePoint" />
            <mxPoint x="218.9" y="680" as="targetPoint" />
            <Array as="points">
              <mxPoint x="218.9" y="650" />
              <mxPoint x="218.9" y="650" />
            </Array>
          </mxGeometry>
        </mxCell>
        <mxCell id="WcjE2hw71G-c8iAP6cZd-16" value="" style="html=1;jettySize=auto;orthogonalLoop=1;fontSize=11;endArrow=none;endFill=0;strokeWidth=1;shadow=0;labelBackgroundColor=none;edgeStyle=orthogonalEdgeStyle;entryX=0.5;entryY=0;entryDx=0;entryDy=0;exitX=0.5;exitY=1;exitDx=0;exitDy=0;strokeColor=default;rounded=0;" edge="1" parent="WIyWlLk6GJQsqaUBKTNV-1">
          <mxGeometry x="0.3333" y="20" relative="1" as="geometry">
            <mxPoint as="offset" />
            <mxPoint x="221.20000000000002" y="740" as="sourcePoint" />
            <mxPoint x="221.20000000000002" y="780" as="targetPoint" />
            <Array as="points">
              <mxPoint x="221.20000000000002" y="750" />
              <mxPoint x="221.20000000000002" y="750" />
            </Array>
          </mxGeometry>
        </mxCell>
        <mxCell id="WcjE2hw71G-c8iAP6cZd-18" value="Нет" style="edgeStyle=orthogonalEdgeStyle;rounded=0;html=1;jettySize=auto;orthogonalLoop=1;fontSize=11;endArrow=block;endFill=0;endSize=8;strokeWidth=1;shadow=0;labelBackgroundColor=none;exitX=1;exitY=0.5;exitDx=0;exitDy=0;" edge="1" parent="WIyWlLk6GJQsqaUBKTNV-1" source="WcjE2hw71G-c8iAP6cZd-1">
          <mxGeometry x="-0.8718" y="10" relative="1" as="geometry">
            <mxPoint as="offset" />
            <mxPoint x="310" y="330" as="sourcePoint" />
            <mxPoint x="220" y="660" as="targetPoint" />
            <Array as="points">
              <mxPoint x="370" y="520" />
              <mxPoint x="370" y="660" />
              <mxPoint x="230" y="660" />
            </Array>
          </mxGeometry>
        </mxCell>
        <mxCell id="WcjE2hw71G-c8iAP6cZd-22" value="Изменение рекорда" style="rounded=1;whiteSpace=wrap;html=1;fontSize=12;glass=0;strokeWidth=1;shadow=0;" vertex="1" parent="WIyWlLk6GJQsqaUBKTNV-1">
          <mxGeometry x="410" y="800" width="160" height="40" as="geometry" />
        </mxCell>
        <mxCell id="WcjE2hw71G-c8iAP6cZd-25" value="" style="edgeStyle=orthogonalEdgeStyle;rounded=0;html=1;jettySize=auto;orthogonalLoop=1;fontSize=11;endArrow=block;endFill=0;endSize=8;strokeWidth=1;shadow=0;labelBackgroundColor=none;exitX=0.5;exitY=1;exitDx=0;exitDy=0;" edge="1" parent="WIyWlLk6GJQsqaUBKTNV-1" source="WcjE2hw71G-c8iAP6cZd-22">
          <mxGeometry x="-0.8718" y="10" relative="1" as="geometry">
            <mxPoint as="offset" />
            <mxPoint x="310" y="220" as="sourcePoint" />
            <mxPoint x="220" y="890" as="targetPoint" />
            <Array as="points">
              <mxPoint x="490" y="890" />
            </Array>
          </mxGeometry>
        </mxCell>
        <mxCell id="WcjE2hw71G-c8iAP6cZd-26" value="Нет" style="edgeLabel;html=1;align=center;verticalAlign=middle;resizable=0;points=[];" vertex="1" connectable="0" parent="WcjE2hw71G-c8iAP6cZd-25">
          <mxGeometry x="0.2011" relative="1" as="geometry">
            <mxPoint y="-10" as="offset" />
          </mxGeometry>
        </mxCell>
        <mxCell id="WcjE2hw71G-c8iAP6cZd-27" value="" style="html=1;jettySize=auto;orthogonalLoop=1;fontSize=11;endArrow=none;endFill=0;strokeWidth=1;shadow=0;labelBackgroundColor=none;edgeStyle=orthogonalEdgeStyle;entryX=0.5;entryY=0;entryDx=0;entryDy=0;exitX=0.5;exitY=1;exitDx=0;exitDy=0;strokeColor=default;rounded=0;" edge="1" parent="WIyWlLk6GJQsqaUBKTNV-1" source="WcjE2hw71G-c8iAP6cZd-10" target="WcjE2hw71G-c8iAP6cZd-11">
          <mxGeometry x="0.3333" y="20" relative="1" as="geometry">
            <mxPoint as="offset" />
            <mxPoint x="231.20000000000002" y="750" as="sourcePoint" />
            <mxPoint x="231.20000000000002" y="790" as="targetPoint" />
            <Array as="points">
              <mxPoint x="220" y="920" />
            </Array>
          </mxGeometry>
        </mxCell>
      </root>
    </mxGraphModel>
  </diagram>
</mxfile>
